# xmcd
#
# Track frame offsets:
#	150
#	17466
#	36331
#	52083
#	71093
#
# Disc length: 1202 seconds
#
# Revision: 0
# Processed by: cddbd v1.5.2PL0 Copyright (c) Steve Scherf et al.
# Submitted via: audiograbber 1.83.01
#
DISCID=4004b005
DTITLE=Feloney Davis - Gonna Be Steppin'
DYEAR=2013
DGENRE=R&B
TTITLE0=Gonna Be
TTITLE1=Still Together
TTITLE2=Bout This Life
TTITLE3=How You Feel
TTITLE4=My Intentions
EXTD=(c) Alpha Records International 2013  - Feloney Davis Gonna Be Steppin'
EXTT0=Written by Feloney Davis\nProduced by Earl Powell
EXTT1=
EXTT2=
EXTT3=
EXTT4=
PLAYORDER=
